PathFileType	4	(X/Y/Z)	Patient4_TMGait_0pt5_01_left_08.trc.trc
DataRate	CameraRate	NumFrames	NumMarkers	Units	OrigDataRate	OrigDataStartFrame	OrigNumFrames
75.268817204301	75.268817204301	4	33	mm	75.268817204301	53	       141
Frame#	Time	L.ASIS			Sacral			L.Shoulder			Chest			R.Shoulder			Neck			R.ASIS			R.Thigh.Superior			R.Thigh.Lateral			R.Thigh.Inferior			R.Patella			L.Thigh.Superior			L.Thigh.Lateral			L.Thigh.Inferior			L.Patella			L.Shank.Superior			L.Shank.Lateral			L.Shank.Inferior			R.Shank.Superior			R.Shank.Lateral			R.Shank.Inferior			R.Heel			R.Midfoot.Superior			R.Midfoot.Lateral			R.Toe			L.Heel			L.Midfoot.Lateral			L.Midfoot.Superior			L.Toe			L.Elbow			L.Wrist			R.Elbow			R.Wrist			
		X1	Y1	Z1	X2	Y2	Z2	X3	Y3	Z3	X4	Y4	Z4	X5	Y5	Z5	X6	Y6	Z6	X7	Y7	Z7	X8	Y8	Z8	X9	Y9	Z9	X10	Y10	Z10	X11	Y11	Z11	X12	Y12	Z12	X13	Y13	Z13	X14	Y14	Z14	X15	Y15	Z15	X16	Y16	Z16	X17	Y17	Z17	X18	Y18	Z18	X19	Y19	Z19	X20	Y20	Z20	X21	Y21	Z21	X22	Y22	Z22	X23	Y23	Z23	X24	Y24	Z24	X25	Y25	Z25	X26	Y26	Z26	X27	Y27	Z27	X28	Y28	Z28	X29	Y29	Z29	X30	Y30	Z30	X31	Y31	Z31	X32	Y32	Z32	X33	Y33	Z33	

53	11.430857142857	714.258337965335	968.735688768720	278.810237330085	495.881601240594	999.617747206771	435.670081602142	656.181487778272	1437.651393120931	260.818979673131	758.966409370548	1371.092380797830	423.572954843948	666.870115221257	1440.065589594154	596.558779998191	654.997443541166	1497.188809786398	411.693431287308	725.072171104681	941.452362550598	552.359435524889	811.764299732563	772.121226529552	518.488835310376	771.904197894204	648.237161435000	587.669518294999	864.066375417359	612.075460781395	509.023987193189	882.488944989807	496.077302958214	528.075095603244	765.137219015712	752.945608186334	310.686351636645	678.273420951943	637.428534871766	249.618953247582	755.614238776404	559.262959014967	318.912969381741	753.496132889942	489.276796747168	331.128711421107	727.935109615770	416.641787811552	320.890314585441	642.070971045429	302.487144173925	264.378883429915	684.700180100384	192.769296454540	342.023481177863	802.874145341893	423.057591608240	531.540792760981	678.134386096991	388.043973018243	586.325610769221	660.468789783176	280.773939735356	536.163579225025	461.069143980628	239.310505530985	497.303960080967	616.235072723755	157.138634429820	547.946619087933	507.437064559316	174.795408250297	575.367172778691	661.322644482658	36.382139266631	582.211070251250	551.338047701126	37.216508277611	375.554117252258	629.558780883542	34.112218860445	298.421004255412	710.416663530777	96.485861768644	329.468024857881	840.429448175813	46.472636837322	307.996497272923	613.619416303888	1096.127697045468	117.556962248871	734.614129049164	862.310924930520	119.208385960882	556.770250405726	1115.909748960315	710.508863309237	562.536270610856	855.057964306243	727.124287580491	
54	11.444142857143	714.330250175418	968.998946552551	278.577303645600	495.054583706645	1000.224058158812	433.823517484793	657.323748918496	1438.400267847040	259.978101331171	758.477218103429	1371.742033358026	423.650051658417	664.827846359832	1440.691567294087	595.789822263692	654.613053349293	1497.827721524490	410.903144864825	723.305057534442	942.609920632603	552.152540682862	811.698598815585	775.382284158806	517.407062321121	774.284648771904	651.069107767166	586.683026852090	866.249593982095	616.153812656465	507.289763167131	886.976246854315	500.717438678264	526.534614031014	763.005547426587	752.171076093995	310.497769912554	674.799522473842	637.448242400187	249.254472947200	751.077221353541	558.531892337485	318.652679798808	748.153977171863	488.660043556460	331.009356760829	722.479273171949	416.381078891252	320.695599886570	636.240022465530	302.501657252223	264.228513280256	678.386883925140	192.663315514369	341.968737849992	809.279378612277	425.975129192866	530.339323096072	685.803349844761	387.101332573892	585.306447373818	671.326407864354	279.348388711287	535.133604733741	472.897930161988	230.568749543446	496.971872517319	631.424936170361	154.938323967409	546.893260373898	522.220740100681	168.142953281196	574.831999464867	681.452155963226	36.522076745887	580.996907367016	544.593757329649	37.238978808260	375.555603028848	622.867564473961	34.148133120568	298.415700424436	703.800539747309	96.433948678962	329.472823672133	833.792563182363	46.174258194042	307.996167922674	617.295939863873	1096.982856881404	115.658154804207	742.290384048952	865.310818637321	119.539570960403	552.632099682299	1116.783729071010	708.006350963868	556.146868676417	855.867719956077	724.694706902380	
55	11.457428571429	714.381236050331	969.155663654201	278.502077816576	494.222320807669	1000.807752191877	432.099503164501	658.577595397406	1439.082282519293	259.244481987311	758.052642174817	1372.307140445013	423.830271612018	662.855391466144	1441.245882701884	595.112840708843	654.278498274317	1498.393712280732	410.192567252187	721.534879006141	943.690924535983	552.062047081657	811.332998497922	778.265549208248	516.431554610467	776.184067048899	653.646230111612	585.894705863967	867.709217702113	619.730272781898	505.646810907345	890.605047137054	505.094904583299	525.214048171213	760.839243233166	751.344378863530	310.500999141744	671.381870318281	637.433957938761	248.962730427881	746.588387306148	557.785012456979	318.478879789607	742.864458603132	488.005594802479	330.932490512865	717.063701717862	416.079738414106	320.547265143263	630.428228995254	302.494624268738	264.129854715337	672.087737966628	192.527312357869	341.931047580339	815.231508433410	428.496391082894	529.434441106002	693.389249381875	385.125740322029	584.655068202414	682.700931389528	276.908883791262	534.499376928578	485.701696520203	219.667911214368	497.131391466309	647.831881684156	151.709747391578	546.306072690051	538.302763491428	159.828985350146	574.843146546056	703.535389536922	36.282606498740	580.421948244480	537.853010922456	37.258245394563	375.563999185981	616.168975226862	34.179695401330	298.419259568850	697.178612264775	96.371080259639	329.491241174474	827.153446745213	45.854848941045	308.001049662893	620.948825735475	1097.826324895024	113.888800560194	750.131143810491	868.513277497202	120.193586231736	549.018984261291	1117.425786751452	705.685227182322	551.070524230436	856.473658770818	722.318586535558	
56	11.470714285714	714.390095326375	969.188068014275	278.551501544833	493.376489941001	1001.333810769154	430.503546434415	659.915588813890	1439.659480442067	258.623840380580	757.696296186727	1372.744226759851	424.105114612158	660.978868127194	1441.685070917907	594.533961536404	654.013537246110	1498.853835231063	409.565449741268	719.769128344805	944.647591467051	552.063692560350	810.694576755319	780.713831956402	515.600329291821	777.563696750719	655.909344508309	585.350736958787	868.459261388046	622.737952936901	504.193871137335	893.374455071961	509.152371475392	524.192310914631	758.664658636968	750.466710293439	310.656497234194	668.057409890335	637.372570696767	248.726550180931	742.198598838156	557.017059969391	318.371299720752	737.686009347986	487.306171110770	330.883760133339	711.735290794339	415.720158680045	320.439104703356	624.678935037709	302.456402055879	264.071820830948	665.823818109130	192.350037480251	341.908420851704	820.720624923373	430.613915238875	528.882926369076	700.924344320493	382.215673573070	584.410344163354	694.595803929459	273.613858960625	534.302823158275	499.664913997243	206.961779614720	497.743805060059	665.379646605504	147.692271953587	546.233484320010	555.698106967571	150.209061304815	575.388081255896	727.268936385153	35.842313911212	580.551230619966	531.124351403792	37.274099084820	375.573683992541	609.467136092740	34.206074003117	298.429542225286	690.553613170535	96.296962200567	329.523067795773	820.516026910524	45.520955733682	308.008081796094	624.626107337629	1098.606914658050	112.241298898906	758.126174869868	871.862745408987	121.170617466436	545.899880501746	1117.801968925328	703.561987684778	547.273921036841	856.831817614653	720.015239204044	
